HIERARCHY
ROOT Hips
{
  OFFSET 13.6774 106.653 -34.4427
  CHANNELS 6 Xposition Yposition Zposition Zrotation Xrotation Yrotation
  JOINT ToSpine
  {
    OFFSET -2.69724 7.43032 -0.144315
    CHANNELS 3 Zrotation Xrotation Yrotation
    JOINT Spine
    {
      OFFSET -0.0310711 10.7595 1.96963
      CHANNELS 3 Zrotation Xrotation Yrotation
      JOINT Spine1
      {
        OFFSET 19.9056 3.91189 0.764692
        CHANNELS 3 Zrotation Xrotation Yrotation
        JOINT Neck
        {
          OFFSET 25.9749 7.03908 -0.130764
          CHANNELS 3 Zrotation Xrotation Yrotation
          JOINT Head
          {
            OFFSET 9.52751 0.295786 -0.907742
            CHANNELS 3 Zrotation Xrotation Yrotation
            End Site
            {
              OFFSET 16.4037 0.713936 2.7358
            }
          }
        }
        JOINT LeftShoulder
        {
          OFFSET 17.7449 4.33886 11.7777
          CHANNELS 3 Zrotation Xrotation Yrotation
          JOINT LeftArm
          {
            OFFSET 0.911315 1.27913 9.80584
            CHANNELS 3 Zrotation Xrotation Yrotation
            JOINT LeftForeArm
            {
              OFFSET 28.6126 1.18197 -3.53199
              CHANNELS 3 Zrotation Xrotation Yrotation
              JOINT LeftHand
              {
                OFFSET 27.5088 0.0218783 0.327423
                CHANNELS 3 Zrotation Xrotation Yrotation
                End Site
                {
                  OFFSET 18.6038 -0.000155887 0.382096
                }
              }
            }
          }
        }
        JOINT RightShoulder
        {
          OFFSET 17.1009 2.89543 -12.2328
          CHANNELS 3 Zrotation Xrotation Yrotation
          JOINT RightArm
          {
            OFFSET 1.4228 0.178766 -10.211
            CHANNELS 3 Zrotation Xrotation Yrotation
            JOINT RightForeArm
            {
              OFFSET 28.733 1.87905 2.64907
              CHANNELS 3 Zrotation Xrotation Yrotation
              JOINT RightHand
              {
                OFFSET 27.4588 0.290562 -0.101845
                CHANNELS 3 Zrotation Xrotation Yrotation
                End Site
                {
                  OFFSET 17.8396 -0.255518 -0.000602873
                }
              }
            }
          }
        }
      }
    }
  }
  JOINT LeftUpLeg
  {
    OFFSET -5.61296 -2.22332 -10.2353
    CHANNELS 3 Zrotation Xrotation Yrotation
    JOINT LeftLeg
    {
      OFFSET 2.56703 -44.7417 -7.93097
      CHANNELS 3 Zrotation Xrotation Yrotation
      JOINT LeftFoot
      {
        OFFSET 3.16933 -46.5642 -3.96578
        CHANNELS 3 Zrotation Xrotation Yrotation
        JOINT LeftToeBase
        {
          OFFSET 0.346054 -6.02161 12.8035
          CHANNELS 3 Zrotation Xrotation Yrotation
          End Site
          {
            OFFSET 0.134235 -1.35082 5.13018
          }
        }
      }
    }
  }
  JOINT RightUpLeg
  {
    OFFSET -5.7928 -1.72406 10.6446
    CHANNELS 3 Zrotation Xrotation Yrotation
    JOINT RightLeg
    {
      OFFSET -2.57161 -44.7178 -7.85259
      CHANNELS 3 Zrotation Xrotation Yrotation
      JOINT RightFoot
      {
        OFFSET -3.10148 -46.5936 -4.03391
        CHANNELS 3 Zrotation Xrotation Yrotation
        JOINT RightToeBase
        {
          OFFSET -0.0828122 -6.13587 12.8035
          CHANNELS 3 Zrotation Xrotation Yrotation
          End Site
          {
            OFFSET -0.131328 -1.35082 5.13018
          }
        }
      }
    }
  }
}
MOTION
Frames: 10
Frame Time: 0.03333333333333333
0.0000 93.1000 0.0000 -0.9165 -71.1086 -90.3303 -70.9885 0.0610 87.9765 96.4107 74.7769 -15.5851 -2.7211 24.9592 2.5926 -151.1134 25.8059 -178.3651 -177.5343 65.3028 -146.7799 -0.2421 -11.7485 -32.8323 -77.6362 35.0054 -94.5487 32.2316 -16.8664 -112.7504 0.2530 0.2933 -0.1684 -2.7728 6.6218 45.4398 -97.3685 -27.7781 63.8377 -0.2240 -34.0435 15.2030 -0.4668 0.4820 -0.1961 -44.5594 2.1412 87.7706 -3.5153 38.1982 -17.7978 -1.9966 -17.1745 -2.1257 10.7363 -23.0475 19.4136 -52.1672 -9.9639 77.0404 2.3864 25.3359 -9.1090 -9.7445 -11.9091 1.2983 1.1079 5.9962 -9.0914 
0.0000 93.1000 0.0000 0.7672 -71.2226 -87.9938 -71.0080 -0.1120 88.0107 96.1733 74.9062 -15.5521 -2.2749 25.0901 1.7793 -151.4582 25.3842 -178.9821 -175.4301 65.8489 -148.5774 0.5395 -12.1307 -32.9137 -77.5096 35.2262 -93.8131 31.9416 -16.0682 -112.7387 0.0656 -0.6386 0.5074 -2.7788 7.2164 45.6214 -98.2825 -27.8962 64.2033 -0.6122 -34.1440 15.3671 0.7806 -0.5180 0.5335 -45.5195 0.6403 88.7622 -3.5601 37.5695 -18.5781 -1.4024 -17.0053 -1.3145 10.9741 -23.0800 17.8761 -53.0233 -11.0494 76.8855 0.9202 24.7008 -8.5115 -9.8768 -11.6555 0.8775 0.1291 6.1579 -8.6459 
0.0000 93.1000 0.0000 -0.0525 -71.5217 -88.8500 -70.9716 0.0317 87.9685 96.0030 74.7441 -15.3357 -2.7003 24.9196 0.6781 -150.4722 25.4367 181.5414 -176.8403 65.3072 -148.1533 -0.0718 -11.1008 -32.1968 -76.7735 35.0603 -93.5833 34.8344 -17.2942 -112.0268 0.1812 0.0011 0.0340 -3.0176 7.2238 46.4666 -96.2400 -28.8494 65.7918 -1.1819 -31.7741 15.6732 0.2420 0.1160 -0.1155 -45.1093 0.9762 88.4372 -3.6315 37.2289 -19.3402 -1.1163 -17.1772 -2.2389 11.4321 -22.8005 17.8865 -53.1354 -11.3806 77.5743 0.8086 24.6938 -7.7090 -8.7849 -10.9774 1.0796 0.8198 8.6139 -9.5089 
0.0000 93.1000 0.0000 -0.1590 -70.5775 -90.1056 -70.9639 -0.2616 87.9996 91.8937 74.6766 -11.7212 -3.2602 25.1922 -0.2698 -150.5630 25.6819 178.8015 -175.0167 65.5084 -147.7896 1.4059 -10.6186 -31.8608 -76.7453 35.3018 -93.4781 37.5940 -18.1060 -110.7232 -0.1098 -1.5059 1.0227 -3.0439 6.7134 46.3160 -95.5392 -30.7835 66.2690 -0.9180 -31.4617 16.1583 1.3406 -1.5006 0.9696 -44.7102 0.2311 87.7997 -4.2305 37.1051 -19.6856 -1.6397 -16.9296 -0.7009 11.5719 -23.0644 19.7370 -53.0053 -11.1261 78.1623 1.6216 25.0223 -8.2059 -8.8269 -10.2449 0.2772 1.3572 8.2854 -8.9303 
0.0000 93.1000 0.0000 -1.2105 -69.8381 -90.9245 -71.0190 -0.0398 88.0000 90.4406 75.0292 -9.1941 -2.2646 24.8903 0.8508 -150.6244 26.0080 -182.8953 -177.0593 65.9963 -147.2298 0.1339 -11.0113 -32.1687 -76.9671 36.5332 -92.4900 33.1428 -16.6623 -111.6939 -0.1726 -0.2353 0.1611 -3.0010 6.8190 45.6294 -96.3975 -29.3989 66.6598 0.1693 -31.8143 16.3481 0.8030 -0.0331 0.3221 -44.7375 -1.3259 88.5831 -4.0256 36.8761 -19.3879 -1.3505 -15.9208 -1.8383 12.3200 -23.2730 19.7396 -52.4537 -12.0588 78.0843 0.8521 23.8647 -7.2082 -10.1381 -11.3445 1.1915 0.0894 7.8981 -7.7644 
0.0000 93.1000 0.0000 -1.1482 -70.2256 -91.0465 -71.0129 -0.0170 87.9925 88.6000 74.7613 -7.6077 -1.8899 24.9778 0.3283 -150.4791 25.6699 -181.9950 -177.1450 65.0464 -149.3270 0.0179 -10.7444 -31.9433 -77.6425 36.2613 -92.6212 32.9948 -16.1879 -111.5684 -0.2628 -0.0931 0.1934 -2.9658 7.0665 45.3203 -95.6010 -29.8776 67.0064 -0.1203 -32.0037 16.3070 0.1124 0.0563 0.0263 -44.7457 -1.4233 88.4137 -3.7413 36.8180 -18.7360 -1.2555 -15.7902 -1.9094 10.7240 -21.9258 18.8041 -52.8801 -12.3715 78.1960 1.0712 23.8466 -8.4485 -10.0704 -10.5926 1.1640 0.0918 8.0262 -4.7824 
0.0000 93.1000 0.0000 -0.9815 -70.7810 -90.3666 -71.0060 0.0234 87.9819 88.7218 74.9601 -6.7424 -1.8331 25.0400 0.7837 -150.2113 25.9575 -181.6738 -176.6272 65.6950 -147.9566 -0.2304 -10.6689 -31.9937 -77.4183 37.1926 -91.7063 32.2016 -15.9823 -111.5595 -0.1096 0.1328 0.2094 -2.9714 7.2052 45.5398 -94.5231 -30.4644 67.2073 -0.3889 -30.4746 17.2771 -0.3158 0.2575 0.0475 -45.6476 -0.9188 88.5417 -4.3440 35.8567 -17.4569 -1.9334 -17.1770 -2.0468 9.0932 -19.8337 16.9065 -53.0723 -12.2021 77.9021 1.5732 22.8556 -9.2289 -9.6713 -10.1191 1.2131 -1.2208 8.2937 -3.7743 
0.0000 93.1000 0.0000 0.1616 -70.6209 -90.4068 -71.0043 0.1106 87.9662 89.6673 74.8643 -7.5141 -1.6447 24.7905 0.8876 -150.3335 25.5531 -180.9066 -176.0122 64.8527 -148.9164 -0.6495 -10.5461 -31.7882 -77.7272 37.1289 -91.5706 33.2409 -15.7750 -111.5641 0.2074 0.5798 -0.0627 -3.0101 6.8962 45.3304 -93.2849 -30.6859 68.2179 -0.2382 -29.1446 17.1014 -0.6966 0.7218 -0.3717 -45.6916 -1.0696 88.5736 -3.7026 35.9189 -18.1402 -2.0685 -17.2410 -2.3832 9.3161 -19.8680 16.6067 -54.1954 -11.1168 77.9648 0.3014 21.7653 -12.1336 -10.4725 -10.4737 1.6479 -1.8403 7.3475 0.0331 
0.0000 93.1000 0.0000 -1.2261 -70.8535 -90.1257 -71.0344 0.0314 87.9852 89.8151 74.8433 -9.1010 -1.9902 25.1181 0.1483 -150.2370 25.5316 -180.9612 -174.7137 65.1064 -150.0713 -0.2602 -11.1984 -31.7463 -77.7470 37.2619 -90.4884 34.7654 -15.9141 -110.8196 0.4089 0.0565 0.0373 -3.0912 7.1133 45.5427 -92.5233 -29.6575 68.0378 -0.2370 -28.0044 17.3143 0.3110 0.2074 -0.0499 -46.8370 -1.2486 88.6472 -4.0541 35.7417 -18.3866 -1.5507 -16.7354 -1.9616 9.4337 -20.0583 16.8947 -54.3133 -10.8512 77.7446 0.1214 21.5353 -12.1561 -11.1016 -9.7126 1.4716 -1.4782 7.1102 0.0603 
0.0000 93.1000 0.0000 0.2580 -70.9437 -89.3973 -71.0006 0.1355 87.9471 88.7567 74.3700 -6.8069 -1.7881 24.7462 -0.2318 -150.2975 25.5117 179.4709 -174.7188 64.6786 -150.2304 -0.4973 -10.5681 -31.9599 -76.7790 38.3002 -90.3621 35.2614 -16.2405 -110.7522 0.3598 0.5236 -0.0630 -3.0868 7.4062 46.2161 -92.4361 -29.4886 69.0373 -0.4788 -27.9163 17.2999 -0.2869 0.5924 -0.3472 -46.8595 -1.0422 88.7098 -3.6828 35.8738 -18.0790 -2.0962 -16.0929 -2.3187 8.2694 -18.7126 16.2918 -53.6900 -11.2826 77.6363 1.0007 21.7259 -10.9209 -11.6445 -8.9738 1.8560 -1.4910 5.8519 -1.6512 
